<svg xmlns="http://www.w3.org/2000/svg" viewBox="0 0 32 32">
  <defs>
    <linearGradient id="grad" x1="0%" y1="0%" x2="100%" y2="100%">
      <stop offset="0%" style="stop-color:#10b981;stop-opacity:1" />
      <stop offset="100%" style="stop-color:#06b6d4;stop-opacity:1" />
    </linearGradient>
  </defs>
  <rect width="32" height="32" rx="8" fill="#050816"/>
  <path d="M16 4C9.4 4 4 9.4 4 16s5.4 12 12 12 12-5.4 12-12S22.6 4 16 4zm0 2c5.5 0 10 4.5 10 10s-4.5 10-10 10S6 21.5 6 16 10.5 6 16 6zm-3 5c-1.7 0-3 1.3-3 3v4c0 1.7 1.3 3 3 3h6c1.7 0 3-1.3 3-3v-4c0-1.7-1.3-3-3-3h-6zm1 2h4v6h-4v-6z" fill="url(#grad)"/>
</svg>
